{"title":"Drive Angry 2011 PPVRIP XviD Feel-Free","uid":6373619,"size":880090244,"categoryP":"video","categoryS":"movies","magnet":"?xt=urn:btih:cc8235470fae9ed76260cfea5c22e1a8f671a40a&amp;dn=Drive+Angry+2011+PPVRIP+XviD+Feel-Free&amp;tr=udp%3A%2F%2Ftracker.openbittorrent.com%3A80&amp;tr=udp%3A%2F%2Fopen.demonii.com%3A1337&amp;tr=udp%3A%2F%2Ftracker.coppersurfer.tk%3A6969&amp;tr=udp%3A%2F%2Fexodus.desync.com%3A6969","seeders":0,"leechers":1,"uploader":".BONE.","files":8,"time":1304729356,"description":"Genre:Action | Fantasy | Thriller\nLanguage:English\n &lt;a href=&quot;\nhttp://www.imdb.com/title/tt1502404/&quot; rel=&quot;nofollow&quot; target=&quot;_NEW&quot;&gt;\nhttp://www.imdb.com/title/tt1502404/&lt;/a&gt;\n\nSource:PPVRIP-IFLIX Thanks!\n\nFormat : AVI\nFormat/Info : Audio Video Interleave\nFile size : 838 MiB\nDuration : 1h 43mn\nOverall bit rate : 1 130 Kbps\n\nVideo\nID : 0\nFormat : MPEG-4 Visual\nFormat profile : Advanced Simple@L5\nFormat settings, BVOP : Yes\nFormat settings, QPel : No\nFormat settings, GMC : No warppoints\nFormat settings, Matrix : Default (H.263)\nMuxing mode : Packed bitstream\nCodec ID : XVID\nCodec ID/Hint : XviD\nDuration : 1h 43mn\nBit rate : 988 Kbps\nWidth : 720 pixels\nHeight : 400 pixels\nDisplay aspect ratio : 16:9\nFrame rate : 29.970 fps\nColor space : YUV\nChroma subsampling : 4:2:0\nBit depth : 8 bits\nScan type : Progressive\nBits/(Pixel*Frame) : 0.114\nStream size : 733 MiB (87%)\nWriting library : XviD 1.2.1 (UTC 2008-12-04)\n\nAudio\nID : 1\nFormat : MPEG Audio\nFormat version : Version 1\nFormat profile : Layer 3\nMode : Joint stereo\nMode extension : MS Stereo\nCodec ID : 55\nCodec ID/Hint : MP3\nDuration : 1h 43mn\nBit rate mode : Constant\nBit rate : 128 Kbps\nChannel(s) : 2 channels\nSampling rate : 44.1 KHz\nStream size : 94.9 MiB (11%)\nAlignment : Aligned on interleaves\nInterleave, duration : 26 ms (0.78 video frame)\nInterleave, preload duration : 522 ms\nWriting library : LAME3.98.2\n\n\nPlot:\nA vengeful father escapes from hell and chases after the men who killed his daughter and kidnapped his granddaughter.\n &lt;a href=&quot;\nhttp://shareimage.org/images/dp8kcx7m7u8r0npylpd2.png&quot; rel=&quot;nofollow&quot; target=&quot;_NEW&quot;&gt;\nhttp://shareimage.org/images/dp8kcx7m7u8r0npylpd2.png&lt;/a&gt;\n &lt;a href=&quot;\nhttp://shareimage.org/images/5mdlka19ntwyctzmyc5.png&quot; rel=&quot;nofollow&quot; target=&quot;_NEW&quot;&gt;\nhttp://shareimage.org/images/5mdlka19ntwyctzmyc5.png&lt;/a&gt;\n &lt;a href=&quot;\nhttp://shareimage.org/images/2nhr5wnt5j9q264g80j.png&quot; rel=&quot;nofollow&quot; target=&quot;_NEW&quot;&gt;\nhttp://shareimage.org/images/2nhr5wnt5j9q264g80j.png&lt;/a&gt;\n &lt;a href=&quot;\nhttp://shareimage.org/images/aqbaenjwkpim1ftyvgbi.png&quot; rel=&quot;nofollow&quot; target=&quot;_NEW&quot;&gt;\nhttp://shareimage.org/images/aqbaenjwkpim1ftyvgbi.png&lt;/a&gt;\n &lt;a href=&quot;\nhttp://shareimage.org/images/1a6etztq1mzygul53m.png&quot; rel=&quot;nofollow&quot; target=&quot;_NEW&quot;&gt;\nhttp://shareimage.org/images/1a6etztq1mzygul53m.png&lt;/a&gt;","torrent":{"xt":"urn:btih:cc8235470fae9ed76260cfea5c22e1a8f671a40a","amp;dn":"Drive+Angry+2011+PPVRIP+XviD+Feel-Free","amp;tr":["udp%3A%2F%2Ftracker.openbittorrent.com%3A80","udp%3A%2F%2Fopen.demonii.com%3A1337","udp%3A%2F%2Ftracker.coppersurfer.tk%3A6969","udp%3A%2F%2Fexodus.desync.com%3A6969"],"infoHash":"cc8235470fae9ed76260cfea5c22e1a8f671a40a","infoHashBuffer":{"type":"Buffer","data":[204,130,53,71,15,174,158,215,98,96,207,234,92,34,225,168,246,113,164,10]},"announce":[],"urlList":[]}}